<svg version="1.1" id="Layer_1" xmlns="http://www.w3.org/2000/svg" xmlns:xlink="http://www.w3.org/1999/xlink" x="0px" y="0px"
	 width="100%" viewBox="0 0 336 192" enable-background="new 0 0 336 192" xml:space="preserve">
<path fill="#000000" opacity="1.000000" stroke="none" 
	d="
M35.758888,131.999954 
	C35.763523,107.518051 35.757160,83.536156 35.779823,59.554279 
	C35.786289,52.712154 35.826317,52.675587 42.809937,52.669716 
	C63.794037,52.652065 84.778877,52.555294 105.762093,52.692963 
	C131.532104,52.862038 149.789368,77.458328 142.414169,102.030289 
	C141.654037,104.562805 141.915222,106.245659 143.564377,108.328766 
	C153.753998,121.199501 156.237808,135.315994 148.956833,150.314606 
	C141.651398,165.363602 128.742386,171.970093 112.511192,172.142258 
	C89.031609,172.391312 65.546677,172.104294 42.065609,172.270447 
	C37.348995,172.303818 35.564377,170.821320 35.681282,165.972305 
	C35.950142,154.820709 35.761745,143.658112 35.758888,131.999954 
M114.682587,101.257744 
	C108.432762,107.178368 100.181458,104.312408 92.890427,105.604668 
	C92.945480,109.299866 94.669235,111.858292 95.565529,114.672516 
	C96.744019,118.372810 98.951210,119.990730 102.984467,119.683197 
	C107.124321,119.367523 111.319756,119.505615 115.475288,119.731606 
	C122.758163,120.127663 128.167313,125.911392 128.280090,133.156235 
	C128.397202,140.679718 123.043190,146.576691 115.577171,147.257935 
	C113.680771,147.430969 111.561470,146.671249 109.942680,148.282547 
	C112.852554,162.636108 118.570030,164.992294 130.604630,156.890915 
	C146.296646,146.327454 147.226227,123.612328 132.464676,111.284180 
	C130.591095,109.719452 128.426468,108.737122 130.014191,105.297729 
	C140.529129,82.519753 127.503746,62.399471 102.354660,62.343941 
	C86.855103,62.309715 71.355347,62.310665 55.855885,62.360203 
	C54.123840,62.365734 52.159405,61.720078 50.662239,63.465591 
	C50.758427,66.018127 52.049576,68.204376 52.962521,70.487473 
	C56.364109,78.994209 59.836521,87.472656 63.291443,95.958023 
	C71.645966,116.476913 79.994385,136.998306 88.384529,157.502625 
	C89.052223,159.134354 89.386246,161.401352 91.630524,161.531525 
	C96.014534,161.785812 100.450867,162.261383 105.462288,160.974243 
	C94.186455,133.063385 83.075172,105.559845 71.888260,77.869080 
	C73.487564,77.330818 74.099434,76.947411 74.712921,76.944824 
	C85.209831,76.900459 95.717148,76.623741 106.199951,77.006676 
	C111.937241,77.216270 116.253128,80.619293 118.386017,86.012405 
	C120.543251,91.467064 119.345589,96.484779 114.682587,101.257744 
M68.569305,130.849701 
	C61.351036,113.215042 54.132767,95.580391 46.914497,77.945732 
	C46.237514,89.324432 46.199497,100.477516 46.279587,111.629745 
	C46.291248,113.253387 46.619942,114.971519 47.220669,116.479073 
	C52.769157,130.403183 58.403191,144.293274 64.032837,158.184937 
	C64.653625,159.716782 65.202477,161.549026 67.234718,161.602829 
	C71.481941,161.715240 75.772820,162.248627 79.906158,161.164810 
	C79.993362,160.534042 80.165741,160.164902 80.062851,159.904572 
	C76.328957,150.456741 72.569435,141.019043 68.569305,130.849701 
M92.816612,87.252800 
	C91.096626,87.478607 89.157066,86.685944 87.515190,88.511658 
	C88.129593,91.247032 88.065994,94.564720 92.223450,94.680428 
	C96.514740,94.799858 100.814148,94.757370 105.106689,94.651421 
	C107.550850,94.591095 109.425392,93.283104 109.311363,90.752319 
	C109.209961,88.501457 107.327110,87.390228 105.126785,87.331100 
	C101.329895,87.229057 97.529076,87.273293 92.816612,87.252800 
M46.404316,139.133896 
	C46.345501,144.280716 46.269970,149.427399 46.231792,154.574371 
	C46.174694,162.271133 47.248169,163.041489 55.542023,160.756805 
	C53.270275,153.298203 50.020885,146.259186 46.404316,139.133896 
M117.774338,132.708710 
	C115.037659,128.917160 111.019981,128.194122 104.512550,130.472366 
	C105.419136,133.230896 104.763191,137.159012 109.172127,137.293488 
	C112.480446,137.394379 116.818649,138.882614 117.774338,132.708710 
z"/>
<path fill="#000000" opacity="1.000000" stroke="none" 
	d="
M268.867310,147.520828 
	C269.749176,163.408005 263.776398,170.906693 248.263458,171.713867 
	C233.646103,172.474442 218.959442,171.890884 204.303360,171.928162 
	C200.868973,171.936905 199.717728,170.206039 199.729401,166.912354 
	C199.810333,144.093002 199.836441,121.273102 199.750290,98.453865 
	C199.735687,94.587288 201.541382,93.685341 204.987030,93.715553 
	C217.478424,93.825134 229.971832,93.685936 242.463699,93.763817 
	C251.053467,93.817368 259.708496,94.677612 263.453674,103.957169 
	C267.278992,113.435280 266.624054,122.601288 257.553284,130.306320 
	C264.152649,134.195679 267.940704,139.744186 268.867310,147.520828 
M237.355927,141.193649 
	C234.357269,141.191223 231.358597,141.184036 228.359940,141.187302 
	C220.295944,141.196075 220.296021,141.197845 220.368317,149.429749 
	C220.371246,149.762909 220.406815,150.100876 220.364685,150.428558 
	C219.926132,153.839188 221.570709,155.443665 224.856506,155.470428 
	C230.343796,155.515106 235.838654,155.648407 241.317169,155.423370 
	C245.560638,155.249100 247.995056,153.140121 247.886902,148.424957 
	C247.748199,142.376572 246.474228,141.276245 237.355927,141.193649 
M242.642105,123.273239 
	C245.531693,120.153915 245.323959,116.542290 243.734634,113.093117 
	C242.193695,109.748962 238.792084,110.337372 235.839539,110.280899 
	C234.015839,110.246010 232.191025,110.269279 230.366699,110.268600 
	C219.565659,110.264580 219.565964,110.264771 220.370514,120.892548 
	C220.408035,121.388168 220.404312,121.888359 220.467514,122.380295 
	C220.637863,123.706284 221.401947,124.605598 222.733505,124.560555 
	C229.147461,124.343582 235.632980,125.667007 242.642105,123.273239 
z"/>
<path fill="#000000" opacity="1.000000" stroke="none" 
	d="
M301.870911,167.594421 
	C301.828430,170.731003 300.432983,171.955536 297.791443,171.915558 
	C296.131317,171.890411 294.469910,171.957916 292.809540,171.939911 
	C279.533569,171.796021 280.834534,174.134705 280.946320,158.344223 
	C280.963104,155.970551 281.941437,154.639374 284.505035,154.602692 
	C288.985596,154.538574 293.464508,154.352219 297.943695,154.203842 
	C300.696503,154.112686 301.852081,155.574600 301.861664,158.175476 
	C301.872711,161.164764 301.880402,164.154037 301.870911,167.594421 
z"/>
<path fill="#000000" opacity="1.000000" stroke="none" 
	d="
M163.663300,161.089142 
	C162.856537,155.569809 165.014999,153.449799 170.036499,154.102798 
	C170.691635,154.187988 171.367905,154.102264 172.034180,154.111176 
	C186.851181,154.309113 184.044586,152.180481 184.338867,168.230896 
	C184.392136,171.136017 182.598618,171.938828 180.148026,171.952835 
	C175.983444,171.976639 171.818375,171.920151 167.653915,171.951477 
	C164.644302,171.974091 163.506393,170.445251 163.659012,167.564941 
	C163.764633,165.571625 163.668762,163.567627 163.663300,161.089142 
z"/>
</svg>